<?xml version="1.0" standalone="no"?><!DOCTYPE svg PUBLIC "-//W3C//DTD SVG 1.1//EN" 	"http://www.w3.org/Graphics/SVG/1.1/DTD/svg11.dtd"><svg width="1440" height="798" version="1.1"	xmlns="http://www.w3.org/2000/svg"><title>Krona (snapshot) - 7 - Terrabacteria group</title><defs>	<style type="text/css">	text {font-size: 11px; font-family: sans-serif; dominant-baseline:central}	path {stroke-width:0.27499999999999997;}	path.wedge {stroke:none}	path.line {fill:none;stroke:black;}	line {stroke:black;stroke-width:0.27499999999999997;}	line.tick {stroke-width:0.5499999999999999;}	line.pattern {stroke-width:0.18333333333333332;}	circle {fill:none;stroke:black;stroke-width:0.27499999999999997;}	rect {stroke:black;stroke-width:0.27499999999999997;}	.highlight {stroke:black;stroke-width:1.375;}	.searchHighlight {fill:rgb(255, 255, 100);stroke:none;}	</style><pattern id="hiddenPattern" patternUnits="userSpaceOnUse" x="0" y="0" width="6.6" height="6.6"><line class="pattern" x1="0" y1="0" x2="3.3" y2="3.3"/><line class="pattern" x1="3.3" y1="6.6" x2="6.6" y2="3.3"/></pattern></defs><path class="wedge" fill="rgb(220,220,220)" d=" M 684.3105785218278,478.7999580510782 L 684.5560483070229,718.1998322043128 A 319.2,319.2 0 0,1 684.2287552600961,718.2 L 684.228755260096,478.8 A 79.8,79.8 0 0 0 684.3105785218278,478.7999580510782 Z "/><path class="wedge" fill="rgb(207,111,111)" d=" M 684.228755260096,478.8 L 684.228755260096,718.2 A 319.2,319.2 0 1,1 998.3900838669995,342.50841117524493 L 762.7690874118219,384.8771027938112 A 79.8,79.8 0 1 0 684.228755260096,478.8 Z "/><path class="wedge" fill="rgb(207,111,111)" d=" M 809.0498176634741,373.52480406347115 L 996.9814696700139,335.16913262982865 A 319.2,319.2 0 0,1 998.3900838669995,342.50841117524493 L 809.6120021385664,376.45394425348235 A 127.39420405776919,127.39420405776919 0 0 0 809.0498176634741,373.52480406347115 Z "/><path class="wedge" fill="rgb(210,121,121)" d=" M 684.228755260096,526.3942040577692 L 684.228755260096,718.2 A 319.2,319.2 0 1,1 994.1499808680637,322.5966367385889 L 807.9197573181642,368.5070624999246 A 127.39420405776919,127.39420405776919 0 1 0 684.228755260096,526.3942040577692 Z "/><path class="wedge" fill="rgb(210,121,121)" d=" M 842.8696595552708,355.26792744922705 L 991.9505769051839,314.1712284455989 A 319.2,319.2 0 0,1 994.1499808680637,322.5966367385889 L 844.0035259535534,359.61150758114763 A 164.558289627648,164.558289627648 0 0 0 842.8696595552708,355.26792744922705 Z "/><path class="wedge" fill="rgb(213,130,130)" d=" M 684.228755260096,563.558289627648 L 684.228755260096,718.2 A 319.2,319.2 0 1,1 887.1203926099752,152.57836236749597 L 788.8261889131322,271.96139343343066 A 164.558289627648,164.558289627648 0 1 0 684.228755260096,563.558289627648 Z "/><path class="wedge" fill="rgb(213,130,130)" d=" M 806.8515888975893,248.18860457715175 L 885.601526108068,151.33561588106747 A 319.2,319.2 0 0,1 887.1203926099752,152.57836236749597 L 807.7764791575617,248.94535582518395 A 194.37190208122948,194.37190208122948 0 0 0 806.8515888975893,248.18860457715175 Z "/><path class="wedge" fill="rgb(216,140,140)" d=" M 684.228755260096,593.3719020812295 L 684.228755260096,718.2 A 319.2,319.2 0 1,1 874.9116264295196,143.01429211265523 L 800.3421398575613,243.12146319651256 A 194.37190208122948,194.37190208122948 0 1 0 684.228755260096,593.3719020812295 Z "/><path class="wedge" fill="rgb(216,140,140)" d=" M 814.5156738315378,223.20212734711163 L 874.2878079192576,142.5507915740389 A 319.2,319.2 0 0,1 874.9116264295196,143.01429211265523 L 814.9433061400899,223.519860473146 A 218.81401504502094,218.81401504502094 0 0 0 814.5156738315378,223.20212734711163 Z "/><path class="wedge" fill="rgb(219,149,149)" d=" M 684.228755260096,617.8140150450209 L 684.228755260096,718.2 A 319.2,319.2 0 1,1 874.2685175173142,142.53649623928942 L 814.5024501150557,223.19232778698338 A 218.81401504502094,218.81401504502094 0 1 0 684.228755260096,617.8140150450209 Z "/><path class="wedge" fill="rgb(219,149,149)" d=" M 824.0921000039214,204.93501448349858 L 870.858808815471,140.04466966305193 A 319.2,319.2 0 0,1 874.2685175173142,142.53649623928942 L 826.6473865430232,206.80242647226876 A 239.21323919559725,239.21323919559725 0 0 0 824.0921000039214,204.93501448349858 Z "/><path class="wedge" fill="rgb(223,159,159)" d=" M 684.228755260096,638.2132391955972 L 684.228755260096,718.2 A 319.2,319.2 0 1,1 870.5726705092392,139.83868874845507 L 823.8776636909776,204.78064931497352 A 239.21323919559725,239.21323919559725 0 1 0 684.228755260096,638.2132391955972 Z "/><path class="wedge" fill="rgb(223,159,159)" d=" M 462.0949598357432,527.2413851890817 L 407.7893395038257,558.592886484116 A 319.2,319.2 0 0,1 870.5726705092392,139.83868874845507 L 833.9660169862657,190.75008188335056 A 256.49420255600836,256.49420255600836 0 0 0 462.0949598357432,527.2413851890817 Z "/><path class="wedge" fill="rgb(226,168,168)" d=" M 684.228755260096,655.4942025560083 L 684.228755260096,718.2 A 319.2,319.2 0 0,1 550.1319378841101,688.6665040518691 L 576.4748196769125,631.7624654259741 A 256.49420255600836,256.49420255600836 0 0 0 684.228755260096,655.4942025560083 Z "/><path class="wedge" fill="rgb(226,171,168)" d=" M 576.4748196769125,631.7624654259741 L 550.1319378841101,688.6665040518691 A 319.2,319.2 0 0,1 488.70469568352894,651.3073168314764 L 527.1147585758697,601.7423685142096 A 256.49420255600836,256.49420255600836 0 0 0 576.4748196769125,631.7624654259741 Z "/><path class="wedge" fill="rgb(226,172,168)" d=" M 527.1147585758697,601.7423685142096 L 488.70469568352894,651.3073168314764 A 319.2,319.2 0 0,1 443.54331631792337,608.6643972667121 L 490.82518468266676,567.4765112196474 A 256.49420255600836,256.49420255600836 0 0 0 527.1147585758697,601.7423685142096 Z "/><path class="wedge" fill="rgb(226,174,168)" d=" M 490.82518468266676,567.4765112196474 L 443.54331631792337,608.6643972667121 A 319.2,319.2 0 0,1 407.7893395038257,558.592886484116 L 462.0949598357432,527.2413851890817 A 256.49420255600836,256.49420255600836 0 0 0 490.82518468266676,567.4765112196474 Z "/><path class="wedge" fill="rgb(219,177,149)" d=" M 823.8776636909776,204.78064931497352 L 870.5726705092392,139.83868874845507 A 319.2,319.2 0 0,1 870.858808815471,140.04466966305193 L 824.0921000039214,204.93501448349858 A 239.21323919559725,239.21323919559725 0 0 0 823.8776636909776,204.78064931497352 Z "/><path class="wedge" fill="url(#hiddenPattern)" d=" M 823.8776636909776,204.78064931497352 L 870.5726705092392,139.83868874845507 A 319.2,319.2 0 0,1 870.858808815471,140.04466966305193 L 824.0921000039214,204.93501448349858 A 239.21323919559725,239.21323919559725 0 0 0 823.8776636909776,204.78064931497352 Z "/><path class="wedge" fill="rgb(216,171,140)" d=" M 814.5024501150557,223.19232778698338 L 874.2685175173142,142.53649623928942 A 319.2,319.2 0 0,1 874.2878079192576,142.5507915740389 L 814.5156738315378,223.20212734711163 A 218.81401504502094,218.81401504502094 0 0 0 814.5024501150557,223.19232778698338 Z "/><path class="wedge" fill="url(#hiddenPattern)" d=" M 814.5024501150557,223.19232778698338 L 874.2685175173142,142.53649623928942 A 319.2,319.2 0 0,1 874.2878079192576,142.5507915740389 L 814.5156738315378,223.20212734711163 A 218.81401504502094,218.81401504502094 0 0 0 814.5024501150557,223.19232778698338 Z "/><path class="wedge" fill="rgb(213,164,130)" d=" M 800.3421398575613,243.12146319651256 L 874.9116264295196,143.01429211265523 A 319.2,319.2 0 0,1 885.601526108068,151.33561588106747 L 806.8515888975893,248.18860457715175 A 194.37190208122948,194.37190208122948 0 0 0 800.3421398575613,243.12146319651256 Z "/><path class="wedge" fill="url(#hiddenPattern)" d=" M 800.3421398575613,243.12146319651256 L 874.9116264295196,143.01429211265523 A 319.2,319.2 0 0,1 885.601526108068,151.33561588106747 L 806.8515888975893,248.18860457715175 A 194.37190208122948,194.37190208122948 0 0 0 800.3421398575613,243.12146319651256 Z "/><path class="wedge" fill="rgb(213,165,130)" d=" M 788.8261889131322,271.96139343343066 L 887.1203926099752,152.57836236749597 A 319.2,319.2 0 0,1 991.9505769051839,314.1712284455989 L 842.8696595552708,355.26792744922705 A 164.558289627648,164.558289627648 0 0 0 788.8261889131322,271.96139343343066 Z "/><path class="wedge" fill="rgb(213,165,130)" d=" M 871.595238457729,347.2869717302674 L 991.9243676212412,314.07620984847733 A 319.2,319.2 0 0,1 991.9505769051839,314.1712284455989 L 871.611198195737,347.3448318350782 A 194.37190208122948,194.37190208122948 0 0 0 871.595238457729,347.2869717302674 Z "/><path class="wedge" fill="rgb(216,172,140)" d=" M 807.7764791575617,248.94535582518395 L 887.1203926099752,152.57836236749597 A 319.2,319.2 0 0,1 991.7952476290484,313.6097618468061 L 871.5166128359269,347.0029354354465 A 194.37190208122948,194.37190208122948 0 0 0 807.7764791575617,248.94535582518395 Z "/><path class="wedge" fill="rgb(216,172,140)" d=" M 895.0149909720499,340.2740601224018 L 991.7180466814532,313.332178379559 A 319.2,319.2 0 0,1 991.7952476290484,313.6097618468061 L 895.0679128057234,340.4643456893769 A 218.81401504502094,218.81401504502094 0 0 0 895.0149909720499,340.2740601224018 Z "/><path class="wedge" fill="rgb(219,179,149)" d=" M 823.3125077274688,230.07610299393033 L 887.1203926099752,152.57836236749597 A 319.2,319.2 0 0,1 991.7129588879936,313.31391875387493 L 895.0115032511395,340.2615430108443 A 218.81401504502094,218.81401504502094 0 0 0 823.3125077274688,230.07610299393033 Z "/><path class="wedge" fill="rgb(219,179,149)" d=" M 913.1420466526663,329.56169047082005 L 989.6847695602163,306.3433039231125 A 319.2,319.2 0 0,1 991.7129588879936,313.31391875387493 L 914.6620019747202,334.7855731551921 A 239.21323919559725,239.21323919559725 0 0 0 913.1420466526663,329.56169047082005 Z "/><path class="wedge" fill="rgb(223,186,159)" d=" M 836.2787733558448,214.3279506705671 L 887.1203926099752,152.57836236749597 A 319.2,319.2 0 0,1 957.2252457118664,233.5867109298155 L 888.8163955169819,275.0368148982565 A 239.21323919559725,239.21323919559725 0 0 0 836.2787733558448,214.3279506705671 Z "/><path class="wedge" fill="rgb(223,186,159)" d=" M 863.3089248012639,215.37111114547025 L 907.0891144725375,170.4788843636074 A 319.2,319.2 0 0,1 957.2252457118664,233.5867109298155 L 903.5959768108974,266.08161130255803 A 256.49420255600836,256.49420255600836 0 0 0 863.3089248012639,215.37111114547025 Z "/><path class="wedge" fill="rgb(226,192,168)" d=" M 847.2629931277029,200.98708822965295 L 887.1203926099752,152.57836236749597 A 319.2,319.2 0 0,1 895.383407328909,159.62090126809625 L 853.9027655933717,206.6461433652392 A 256.49420255600836,256.49420255600836 0 0 0 847.2629931277029,200.98708822965295 Z "/><path class="wedge" fill="url(#hiddenPattern)" d=" M 847.2629931277029,200.98708822965295 L 887.1203926099752,152.57836236749597 A 319.2,319.2 0 0,1 895.383407328909,159.62090126809625 L 853.9027655933717,206.6461433652392 A 256.49420255600836,256.49420255600836 0 0 0 847.2629931277029,200.98708822965295 Z "/><path class="wedge" fill="rgb(226,193,168)" d=" M 853.9027655933717,206.6461433652392 L 895.383407328909,159.62090126809625 A 319.2,319.2 0 0,1 907.0891144725375,170.4788843636074 L 863.3089248012639,215.37111114547025 A 256.49420255600836,256.49420255600836 0 0 0 853.9027655933717,206.6461433652392 Z "/><path class="wedge" fill="rgb(223,188,159)" d=" M 888.8163955169819,275.0368148982565 L 957.2252457118664,233.5867109298155 A 319.2,319.2 0 0,1 988.818611795412,303.53451254094176 L 912.492935109517,327.4567403306141 A 239.21323919559725,239.21323919559725 0 0 0 888.8163955169819,275.0368148982565 Z "/><path class="wedge" fill="rgb(223,188,159)" d=" M 909.2729715759743,275.93750917678125 L 964.2901099893227,245.8521055083346 A 319.2,319.2 0 0,1 988.818611795412,303.53451254094176 L 928.982929316095,322.28839574739425 A 256.49420255600836,256.49420255600836 0 0 0 909.2729715759743,275.93750917678125 Z "/><path class="wedge" fill="rgb(226,194,168)" d=" M 903.5959768108974,266.08161130255803 L 957.2252457118664,233.5867109298155 A 319.2,319.2 0 0,1 964.2525111549562,245.78336860988043 L 909.2427589098156,275.8822754175232 A 256.49420255600836,256.49420255600836 0 0 0 903.5959768108974,266.08161130255803 Z "/><path class="wedge" fill="rgb(226,194,168)" d=" M 961.0983729756547,240.15461987819586 L 961.0983729756547,240.15461987819586 A 319.2,319.2 0 0,1 964.2525111549562,245.78336860988043 L 964.2525111549562,245.78336860988043 A 319.2,319.2 0 0 0 961.0983729756547,240.15461987819586 Z "/><path class="wedge" fill="rgb(226,195,168)" d=" M 909.2427589098156,275.8822754175232 L 964.2525111549562,245.78336860988043 A 319.2,319.2 0 0,1 964.2901099893227,245.8521055083346 L 909.2729715759743,275.93750917678125 A 256.49420255600836,256.49420255600836 0 0 0 909.2427589098156,275.8822754175232 Z "/><path class="wedge" fill="url(#hiddenPattern)" d=" M 909.2427589098156,275.8822754175232 L 964.2525111549562,245.78336860988043 A 319.2,319.2 0 0,1 964.2901099893227,245.8521055083346 L 909.2729715759743,275.93750917678125 A 256.49420255600836,256.49420255600836 0 0 0 909.2427589098156,275.8822754175232 Z "/><path class="wedge" fill="rgb(219,183,149)" d=" M 912.492935109517,327.4567403306141 L 988.818611795412,303.53451254094176 A 319.2,319.2 0 0,1 989.6847695602163,306.3433039231125 L 913.1420466526663,329.56169047082005 A 239.21323919559725,239.21323919559725 0 0 0 912.492935109517,327.4567403306141 Z "/><path class="wedge" fill="url(#hiddenPattern)" d=" M 912.492935109517,327.4567403306141 L 988.818611795412,303.53451254094176 A 319.2,319.2 0 0,1 989.6847695602163,306.3433039231125 L 913.1420466526663,329.56169047082005 A 239.21323919559725,239.21323919559725 0 0 0 912.492935109517,327.4567403306141 Z "/><path class="wedge" fill="rgb(216,177,140)" d=" M 895.0115032511395,340.2615430108443 L 991.7129588879936,313.31391875387493 A 319.2,319.2 0 0,1 991.7180466814532,313.332178379559 L 895.0149909720499,340.2740601224018 A 218.81401504502094,218.81401504502094 0 0 0 895.0115032511395,340.2615430108443 Z "/><path class="wedge" fill="url(#hiddenPattern)" d=" M 895.0115032511395,340.2615430108443 L 991.7129588879936,313.31391875387493 A 319.2,319.2 0 0,1 991.7180466814532,313.332178379559 L 895.0149909720499,340.2740601224018 A 218.81401504502094,218.81401504502094 0 0 0 895.0115032511395,340.2615430108443 Z "/><path class="wedge" fill="rgb(213,170,130)" d=" M 871.5166128359269,347.0029354354465 L 991.7952476290484,313.6097618468061 A 319.2,319.2 0 0,1 991.9243676212412,314.07620984847733 L 871.595238457729,347.2869717302674 A 194.37190208122948,194.37190208122948 0 0 0 871.5166128359269,347.0029354354465 Z "/><path class="wedge" fill="url(#hiddenPattern)" d=" M 871.5166128359269,347.0029354354465 L 991.7952476290484,313.6097618468061 A 319.2,319.2 0 0,1 991.9243676212412,314.07620984847733 L 871.595238457729,347.2869717302674 A 194.37190208122948,194.37190208122948 0 0 0 871.5166128359269,347.0029354354465 Z "/><path class="wedge" fill="rgb(207,158,111)" d=" M 807.9197573181642,368.5070624999246 L 994.1499808680637,322.5966367385889 A 319.2,319.2 0 0,1 996.9814696700139,335.16913262982865 L 809.0498176634741,373.52480406347115 A 127.39420405776919,127.39420405776919 0 0 0 807.9197573181642,368.5070624999246 Z "/><path class="wedge" fill="url(#hiddenPattern)" d=" M 807.9197573181642,368.5070624999246 L 994.1499808680637,322.5966367385889 A 319.2,319.2 0 0,1 996.9814696700139,335.16913262982865 L 809.0498176634741,373.52480406347115 A 127.39420405776919,127.39420405776919 0 0 0 807.9197573181642,368.5070624999246 Z "/><path class="wedge" fill="rgb(197,207,111)" d=" M 762.7690874118219,384.8771027938112 L 998.3900838669995,342.50841117524493 A 319.2,319.2 0 0,1 684.9389428000524,718.1992099514941 L 684.4063021450851,478.79980248787354 A 79.8,79.8 0 0 0 762.7690874118219,384.8771027938112 Z "/><path class="wedge" fill="rgb(197,207,111)" d=" M 684.514716105568,526.3938831102474 L 684.9452611839705,718.1991958311628 A 319.2,319.2 0 0,1 684.9389428000524,718.1992099514941 L 684.5121944091702,526.3938887457374 A 127.39420405776919,127.39420405776919 0 0 0 684.514716105568,526.3938831102474 Z "/><path class="wedge" fill="rgb(200,210,121)" d=" M 809.6120021385664,376.45394425348235 L 998.3900838669995,342.50841117524493 A 319.2,319.2 0 0,1 684.9503158909031,718.199184444848 L 684.5167334626057,526.3938785659162 A 127.39420405776919,127.39420405776919 0 0 0 809.6120021385664,376.45394425348235 Z "/><path class="wedge" fill="rgb(200,210,121)" d=" M 684.7486269189451,563.5574684377322 L 685.2371701742284,718.1984071065533 A 319.2,319.2 0 0,1 684.9503158909031,718.199184444848 L 684.6007439294827,563.5578691816552 A 164.558289627648,164.558289627648 0 0 0 684.7486269189451,563.5574684377322 Z "/><path class="wedge" fill="rgb(204,213,130)" d=" M 846.1894410455018,369.8766941248432 L 998.3900838669995,342.50841117524493 A 319.2,319.2 0 0,1 685.4166116613467,718.1977897748824 L 684.8411350148361,563.5571501825821 A 164.558289627648,164.558289627648 0 0 0 846.1894410455018,369.8766941248432 Z "/><path class="wedge" fill="rgb(204,213,130)" d=" M 684.956698997819,593.3705389625438 L 685.4241936881465,718.1977614692257 A 319.2,319.2 0 0,1 685.4166116613467,718.1977897748824 L 684.9520820398907,593.3705561988356 A 194.37190208122948,194.37190208122948 0 0 0 684.956698997819,593.3705389625438 Z "/><path class="wedge" fill="rgb(208,216,140)" d=" M 875.5324363430848,364.6003208914212 L 998.3900838669995,342.50841117524493 A 319.2,319.2 0 0,1 685.4305120432977,718.197737743603 L 684.9605464624453,593.370524515193 A 194.37190208122948,194.37190208122948 0 0 0 875.5324363430848,364.6003208914212 Z "/><path class="wedge" fill="rgb(208,216,140)" d=" M 686.0201653932445,617.8066818674821 L 686.8420161811724,718.189302557837 A 319.2,319.2 0 0,1 685.4305120432977,718.197737743603 L 685.0525686273891,617.8124642511448 A 218.81401504502094,218.81401504502094 0 0 0 686.0201653932445,617.8066818674821 Z "/><path class="wedge" fill="rgb(212,219,149)" d=" M 899.5887229429117,360.2745884491946 L 998.3900838669995,342.50841117524493 A 319.2,319.2 0 0,1 686.8900343798105,718.1889058119767 L 686.0530822317131,617.8064098951932 A 218.81401504502094,218.81401504502094 0 0 0 899.5887229429117,360.2745884491946 Z "/><path class="wedge" fill="rgb(212,219,149)" d=" M 689.4350633387812,638.1565766660826 L 691.1759189885946,718.1243909765117 A 319.2,319.2 0 0,1 686.8900343798105,718.1889058119767 L 686.2231575114447,638.204925045681 A 239.21323919559725,239.21323919559725 0 0 0 689.4350633387812,638.1565766660826 Z "/><path class="wedge" fill="rgb(216,223,159)" d=" M 919.6659389883223,356.66436105866086 L 998.3900838669995,342.50841117524493 A 319.2,319.2 0 0,1 691.5953552299626,718.1149843001483 L 689.7493951117563,638.1495271625647 A 239.21323919559725,239.21323919559725 0 0 0 919.6659389883223,356.66436105866086 Z "/><path class="wedge" fill="rgb(220,226,168)" d=" M 936.6741169611105,353.60599928970095 L 998.3900838669995,342.50841117524493 A 319.2,319.2 0 0,1 691.5953552299626,718.1149843001483 L 690.1482107263242,655.4258879127183 A 256.49420255600836,256.49420255600836 0 0 0 936.6741169611105,353.60599928970095 Z "/><path class="wedge" fill="rgb(179,219,149)" d=" M 689.7493951117563,638.1495271625647 L 691.5953552299626,718.1149843001483 A 319.2,319.2 0 0,1 691.1759189885946,718.1243909765117 L 689.4350633387812,638.1565766660826 A 239.21323919559725,239.21323919559725 0 0 0 689.7493951117563,638.1495271625647 Z "/><path class="wedge" fill="url(#hiddenPattern)" d=" M 689.7493951117563,638.1495271625647 L 691.5953552299626,718.1149843001483 A 319.2,319.2 0 0,1 691.1759189885946,718.1243909765117 L 689.4350633387812,638.1565766660826 A 239.21323919559725,239.21323919559725 0 0 0 689.7493951117563,638.1495271625647 Z "/><path class="wedge" fill="rgb(171,216,140)" d=" M 686.0530822317131,617.8064098951932 L 686.8900343798105,718.1889058119767 A 319.2,319.2 0 0,1 686.8420161811724,718.189302557837 L 686.0201653932445,617.8066818674821 A 218.81401504502094,218.81401504502094 0 0 0 686.0530822317131,617.8064098951932 Z "/><path class="wedge" fill="url(#hiddenPattern)" d=" M 686.0530822317131,617.8064098951932 L 686.8900343798105,718.1889058119767 A 319.2,319.2 0 0,1 686.8420161811724,718.189302557837 L 686.0201653932445,617.8066818674821 A 218.81401504502094,218.81401504502094 0 0 0 686.0530822317131,617.8064098951932 Z "/><path class="wedge" fill="rgb(164,213,130)" d=" M 684.9605464624453,593.370524515193 L 685.4305120432977,718.197737743603 A 319.2,319.2 0 0,1 685.4241936881465,718.1977614692257 L 684.956698997819,593.3705389625438 A 194.37190208122948,194.37190208122948 0 0 0 684.9605464624453,593.370524515193 Z "/><path class="wedge" fill="url(#hiddenPattern)" d=" M 684.9605464624453,593.370524515193 L 685.4305120432977,718.197737743603 A 319.2,319.2 0 0,1 685.4241936881465,718.1977614692257 L 684.956698997819,593.3705389625438 A 194.37190208122948,194.37190208122948 0 0 0 684.9605464624453,593.370524515193 Z "/><path class="wedge" fill="rgb(156,210,121)" d=" M 684.8411350148361,563.5571501825821 L 685.4166116613467,718.1977897748824 A 319.2,319.2 0 0,1 685.2371701742284,718.1984071065533 L 684.7486269189451,563.5574684377322 A 164.558289627648,164.558289627648 0 0 0 684.8411350148361,563.5571501825821 Z "/><path class="wedge" fill="url(#hiddenPattern)" d=" M 684.8411350148361,563.5571501825821 L 685.4166116613467,718.1977897748824 A 319.2,319.2 0 0,1 685.2371701742284,718.1984071065533 L 684.7486269189451,563.5574684377322 A 164.558289627648,164.558289627648 0 0 0 684.8411350148361,563.5571501825821 Z "/><path class="wedge" fill="rgb(156,210,121)" d=" M 684.5167334626057,526.3938785659162 L 684.9503158909031,718.199184444848 A 319.2,319.2 0 0,1 684.9452611839705,718.1991958311628 L 684.514716105568,526.3938831102474 A 127.39420405776919,127.39420405776919 0 0 0 684.5167334626057,526.3938785659162 Z "/><path class="wedge" fill="url(#hiddenPattern)" d=" M 684.5167334626057,526.3938785659162 L 684.9503158909031,718.199184444848 A 319.2,319.2 0 0,1 684.9452611839705,718.1991958311628 L 684.514716105568,526.3938831102474 A 127.39420405776919,127.39420405776919 0 0 0 684.5167334626057,526.3938785659162 Z "/><path class="wedge" fill="rgb(111,207,125)" d=" M 684.4063021450851,478.79980248787354 L 684.9389428000524,718.1992099514941 A 319.2,319.2 0 0,1 684.6659883823618,718.1997005437141 L 684.3380635406625,478.79992513592856 A 79.8,79.8 0 0 0 684.4063021450851,478.79980248787354 Z "/><path class="wedge" fill="rgb(111,207,125)" d=" M 684.4063021450851,478.79980248787354 L 684.9389428000524,718.1992099514941 A 319.2,319.2 0 0,1 684.6659883823618,718.1997005437141 L 684.3380635406625,478.79992513592856 A 79.8,79.8 0 0 0 684.4063021450851,478.79980248787354 Z "/><path class="wedge" fill="url(#hiddenPattern)" d=" M 684.4063021450851,478.79980248787354 L 684.9389428000524,718.1992099514941 A 319.2,319.2 0 0,1 684.6659883823618,718.1997005437141 L 684.3380635406625,478.79992513592856 A 79.8,79.8 0 0 0 684.4063021450851,478.79980248787354 Z "/><rect fill="rgb(111,207,125)" x="1406.03" y="617.3633333333333" width="22" height="22"/><rect fill="url(#hiddenPattern)" style="stroke:none" x="1406.03" y="617.3633333333333" width="22" height="22"/><path class="line" d="M 684.8024656436463,718.1994844237624 L 684.8844242698678,763.7994107700142 A 364.79999999999995,364.79999999999995 0 0,0 967.903747676104,628.3633333333333 L 1077.528755260096,628.3633333333333 L 1303.9344596354167,628.3633333333333"/><text x="1398.6966666666667" y="628.3633333333333" style="font-color:black;font-weight:normal" text-anchor="end">Mollicutes&#160;&#160;&#160;0.01%</text><path class="wedge" fill="rgb(101,194,204)" d=" M 684.3380635406625,478.79992513592856 L 684.6659883823618,718.1997005437141 A 319.2,319.2 0 0,1 684.6621973460698,718.1997057140844 L 684.3371157815894,478.7999264285211 A 79.8,79.8 0 0 0 684.3380635406625,478.79992513592856 Z "/><path class="wedge" fill="url(#hiddenPattern)" d=" M 684.3380635406625,478.79992513592856 L 684.6659883823618,718.1997005437141 A 319.2,319.2 0 0,1 684.6621973460698,718.1997057140844 L 684.3371157815894,478.7999264285211 A 79.8,79.8 0 0 0 684.3380635406625,478.79992513592856 Z "/><rect fill="rgb(101,194,204)" x="1406.03" y="646.6966666666667" width="22" height="22"/><rect fill="url(#hiddenPattern)" style="stroke:none" x="1406.03" y="646.6966666666667" width="22" height="22"/><path class="line" d="M 684.6640928642232,718.1997031345275 L 684.7340578363151,769.499655424005 A 370.5,370.5 0 0,0 949.4574955118936,657.6966666666667 L 1066.528755260096,657.6966666666667 L 1288.6375846354167,657.6966666666667"/><text x="1398.6966666666667" y="657.6966666666667" style="font-color:black;font-weight:normal" text-anchor="end">Chloroflexi&#160;&#160;&#160;0.0002%</text><path class="wedge" fill="rgb(111,115,207)" d=" M 684.3371157815894,478.7999264285211 L 684.6621973460698,718.1997057140844 A 319.2,319.2 0 0,1 684.6621973460698,718.1997057140844 L 684.3371157815894,478.7999264285211 A 79.8,79.8 0 0 0 684.3371157815894,478.7999264285211 Z "/><path class="wedge" fill="rgb(111,115,207)" d=" M 684.3371157815894,478.7999264285211 L 684.6621973460698,718.1997057140844 A 319.2,319.2 0 0,1 684.6621973460698,718.1997057140844 L 684.3371157815894,478.7999264285211 A 79.8,79.8 0 0 0 684.3371157815894,478.7999264285211 Z "/><rect fill="rgb(111,115,207)" x="1406.03" y="676.03" width="22" height="22"/><path class="line" d="M 684.6621973460697,718.1997057140844 L 684.7395977185649,775.1996531630282 A 376.20000000000005,376.20000000000005 0 0,0 926.2311500829574,687.03 L 1055.528755260096,687.03 L 1314.3275260416667,687.03"/><text x="1398.6966666666667" y="687.03" style="font-color:gray;font-weight:normal" text-anchor="end">Deinococci&#160;&#160;&#160;0%</text><path class="wedge" fill="rgb(121,124,210)" d=" M 684.4017440118121,526.3940866068921 L 684.6621973460698,718.1997057140844 A 319.2,319.2 0 0,1 684.6621973460698,718.1997057140844 L 684.4017440118121,526.3940866068921 A 127.39420405776919,127.39420405776919 0 0 0 684.4017440118121,526.3940866068921 Z "/><path class="wedge" fill="url(#hiddenPattern)" d=" M 684.4017440118121,526.3940866068921 L 684.6621973460698,718.1997057140844 A 319.2,319.2 0 0,1 684.6621973460698,718.1997057140844 L 684.4017440118121,526.3940866068921 A 127.39420405776919,127.39420405776919 0 0 0 684.4017440118121,526.3940866068921 Z "/><path class="wedge" fill="rgb(179,111,207)" d=" M 684.3371157815894,478.7999264285211 L 684.6621973460698,718.1997057140844 A 319.2,319.2 0 0,1 684.5560483070229,718.1998322043128 L 684.3105785218278,478.7999580510782 A 79.8,79.8 0 0 0 684.3371157815894,478.7999264285211 Z "/><path class="wedge" fill="rgb(179,111,207)" d=" M 684.3371157815894,478.7999264285211 L 684.6621973460698,718.1997057140844 A 319.2,319.2 0 0,1 684.5560483070229,718.1998322043128 L 684.3105785218278,478.7999580510782 A 79.8,79.8 0 0 0 684.3371157815894,478.7999264285211 Z "/><path class="wedge" fill="url(#hiddenPattern)" d=" M 684.3371157815894,478.7999264285211 L 684.6621973460698,718.1997057140844 A 319.2,319.2 0 0,1 684.5560483070229,718.1998322043128 L 684.3105785218278,478.7999580510782 A 79.8,79.8 0 0 0 684.3371157815894,478.7999264285211 Z "/><rect fill="rgb(179,111,207)" x="1406.03" y="705.3633333333333" width="22" height="22"/><rect fill="url(#hiddenPattern)" style="stroke:none" x="1406.03" y="705.3633333333333" width="22" height="22"/><path class="line" d="M 684.6091228318041,718.1997733716464 L 684.6838378905325,780.8997288553626 A 381.9,381.9 0 0,0 896.6625676712928,716.3633333333333 L 1044.528755260096,716.3633333333333 L 1275.7899283854167,716.3633333333333"/><text x="1398.6966666666667" y="716.3633333333333" style="font-color:black;font-weight:normal" text-anchor="end">Cyanobacteria&#160;&#160;&#160;0.005%</text><path class="wedge" fill="rgb(207,111,176)" d=" M 684.3105785218278,478.7999580510782 L 684.5560483070229,718.1998322043128 A 319.2,319.2 0 0,1 684.5560483070229,718.1998322043128 L 684.3105785218278,478.7999580510782 A 79.8,79.8 0 0 0 684.3105785218278,478.7999580510782 Z "/><path class="wedge" fill="rgb(207,111,176)" d=" M 684.3105785218278,478.7999580510782 L 684.5560483070229,718.1998322043128 A 319.2,319.2 0 0,1 684.5560483070229,718.1998322043128 L 684.3105785218278,478.7999580510782 A 79.8,79.8 0 0 0 684.3105785218278,478.7999580510782 Z "/><path class="wedge" fill="rgb(207,111,176)" d=" M 684.3105785218278,478.7999580510782 L 684.5560483070229,718.1998322043128 A 319.2,319.2 0 0,1 684.5560483070229,718.1998322043128 L 684.3105785218278,478.7999580510782 A 79.8,79.8 0 0 0 684.3105785218278,478.7999580510782 Z "/><path class="wedge" fill="rgb(207,111,176)" d=" M 684.3105785218278,478.7999580510782 L 684.5560483070229,718.1998322043128 A 319.2,319.2 0 0,1 684.5560483070229,718.1998322043128 L 684.3105785218278,478.7999580510782 A 79.8,79.8 0 0 0 684.3105785218278,478.7999580510782 Z "/><path class="wedge" fill="rgb(207,111,176)" d=" M 684.3105785218278,478.7999580510782 L 684.5560483070229,718.1998322043128 A 319.2,319.2 0 0,1 684.5560483070229,718.1998322043128 L 684.3105785218278,478.7999580510782 A 79.8,79.8 0 0 0 684.3105785218278,478.7999580510782 Z "/><path class="wedge" fill="rgb(207,111,176)" d=" M 684.3105785218278,478.7999580510782 L 684.5560483070229,718.1998322043128 A 319.2,319.2 0 0,1 684.5560483070229,718.1998322043128 L 684.3105785218278,478.7999580510782 A 79.8,79.8 0 0 0 684.3105785218278,478.7999580510782 Z "/><rect fill="rgb(207,111,176)" x="1406.03" y="734.6966666666667" width="22" height="22"/><path class="line" d="M 684.5560483070228,718.1998322043128 L 684.6261825313643,786.5997962480941 A 387.6,387.6 0 0,0 857.5353659886605,745.6966666666667 L 1033.528755260096,745.6966666666667 L 1237.8861197916667,745.6966666666667"/><text x="1398.6966666666667" y="745.6966666666667" style="font-color:gray;font-weight:normal" text-anchor="end">Chthonomonas calidirosea&#160;&#160;&#160;0%</text><path class="wedge" fill="rgb(210,121,181)" d=" M 684.3593794368094,526.3941370897303 L 684.5560483070229,718.1998322043128 A 319.2,319.2 0 0,1 684.5560483070229,718.1998322043128 L 684.3593794368094,526.3941370897303 A 127.39420405776919,127.39420405776919 0 0 0 684.3593794368094,526.3941370897303 Z "/><path class="wedge" fill="url(#hiddenPattern)" d=" M 684.3593794368094,526.3941370897303 L 684.5560483070229,718.1998322043128 A 319.2,319.2 0 0,1 684.5560483070229,718.1998322043128 L 684.3593794368094,526.3941370897303 A 127.39420405776919,127.39420405776919 0 0 0 684.3593794368094,526.3941370897303 Z "/><circle cx="684.228755260096" cy="399" r="79.8"/><circle cx="684.228755260096" cy="399" r="319.2"/><text x="684.228755260096" y="399" text-anchor="middle" style="font-color:black;font-weight:bold" transform="rotate(360,684.228755260096,399)">Terrabacteria group</text><rect fill="rgb(220,220,220)" x="1406.03" y="764.03" width="22" height="22"/><path class="line" d="M 684.3924018050659,718.1999580510754 L 684.4303911815767,792.2999483129322 A 393.29999999999995,393.29999999999995 0 0,0 799.4950950996172,775.03 L 1022.528755260096,775.03 L 1223.2122916666667,775.03"/><text x="1398.6966666666667" y="775.03" style="font-color:black;font-weight:normal" text-anchor="end">[other Terrabacteria group]&#160;&#160;&#160;0.02%</text><path class="line" d=" M 762.7690874118219,384.8771027938112 A 79.8,79.8 0 1 0 684.228755260096,478.8"/><line x1="998.3900838669995" y1="342.50841117524493" x2="762.7690874118219" y2="384.8771027938112"/><text x="684.228755260096" y="304.92173878266925" text-anchor="middle" style="font-color:black;font-weight:normal" transform="rotate(309.90308769741137,684.228755260096,399)">Firmicutes</text><path class="line" d=" M 807.9197573181642,368.5070624999246 A 127.39420405776919,127.39420405776919 0 1 0 684.228755260096,526.3942040577692"/><line x1="994.1499808680637" y1="322.5966367385889" x2="807.9197573181642" y2="368.5070624999246"/><text x="684.228755260096" y="260.4565702712672" text-anchor="middle" style="font-color:black;font-weight:normal" transform="rotate(308.07564716890187,684.228755260096,399)">Bacilli</text><path class="line" d=" M 788.8261889131322,271.96139343343066 A 164.558289627648,164.558289627648 0 1 0 684.228755260096,563.558289627648"/><line x1="887.1203926099752" y1="152.57836236749597" x2="788.8261889131322" y2="271.96139343343066"/><text x="684.228755260096" y="225.49762663627754" text-anchor="middle" style="font-color:black;font-weight:normal" transform="rotate(289.73319345600953,684.228755260096,399)">Lactobacillales</text><path class="line" d=" M 800.3421398575613,243.12146319651256 A 194.37190208122948,194.37190208122948 0 1 0 684.228755260096,593.3719020812295"/><line x1="874.9116264295196" y1="143.01429211265523" x2="800.3421398575613" y2="243.12146319651256"/><text x="684.228755260096" y="192.4070414368748" text-anchor="middle" style="font-color:black;font-weight:normal" transform="rotate(288.3411494513595,684.228755260096,399)">Enterococcaceae</text><path class="line" d=" M 814.5024501150557,223.19232778698338 A 218.81401504502094,218.81401504502094 0 1 0 684.228755260096,617.8140150450209"/><line x1="874.2685175173142" y1="142.53649623928942" x2="814.5024501150557" y2="223.19232778698338"/><text x="684.228755260096" y="169.9863728796909" text-anchor="middle" style="font-color:black;font-weight:normal" transform="rotate(288.26924494598654,684.228755260096,399)">Enterococcus</text><path class="line" d=" M 823.8776636909776,204.78064931497352 A 239.21323919559725,239.21323919559725 0 1 0 684.228755260096,638.2132391955972"/><line x1="870.5726705092392" y1="139.83868874845507" x2="823.8776636909776" y2="204.78064931497352"/><text x="405.0221356622974" y="399" text-anchor="end" style="font-color:black;font-weight:normal" transform="rotate(17.85857268422694,684.228755260096,399)">Enterococcus faecalis&#160;&#160;&#160;60%</text><path class="line" d=" M 576.4748196769125,631.7624654259741 A 256.49420255600836,256.49420255600836 0 0 0 684.228755260096,655.4942025560083"/><line x1="550.1319378841101" y1="688.6665040518691" x2="576.4748196769125" y2="631.7624654259741"/><text x="396.38165398209185" y="399" text-anchor="end" style="font-color:black;font-weight:normal" transform="rotate(-77.57946071620971,684.228755260096,399)">Enterococcus faecalis V583&#160;&#160;&#160;7%</text><path class="line" d=" M 527.1147585758697,601.7423685142096 A 256.49420255600836,256.49420255600836 0 0 0 576.4748196769125,631.7624654259741"/><line x1="488.70469568352894" y1="651.3073168314764" x2="527.1147585758697" y2="601.7423685142096"/><text x="396.38165398209185" y="399" text-anchor="end" style="font-color:black;font-weight:normal" transform="rotate(-58.69261958093509,684.228755260096,399)">Enterococcus faecalis str. Symbioflor 1&#160;&#160;&#160;4%</text><path class="line" d=" M 490.82518468266676,567.4765112196474 A 256.49420255600836,256.49420255600836 0 0 0 527.1147585758697,601.7423685142096"/><line x1="443.54331631792337" y1="608.6643972667121" x2="490.82518468266676" y2="567.4765112196474"/><text x="396.38165398209185" y="399" text-anchor="end" style="font-color:black;font-weight:normal" transform="rotate(-46.64294422864271,684.228755260096,399)">Enterococcus faecalis D32&#160;&#160;&#160;3%</text><path class="line" d=" M 462.0949598357432,527.2413851890817 A 256.49420255600836,256.49420255600836 0 0 0 490.82518468266676,567.4765112196474"/><line x1="407.7893395038257" y1="558.592886484116" x2="462.0949598357432" y2="527.2413851890817"/><text x="396.38165398209185" y="399" text-anchor="end" style="font-color:black;font-weight:normal" transform="rotate(-35.529048172616164,684.228755260096,399)">Enterococcus faecalis OG1RF&#160;&#160;&#160;3%</text><path class="line" d=" M 824.0921000039214,204.93501448349858 A 239.21323919559725,239.21323919559725 0 0 0 823.8776636909776,204.78064931497352"/><line x1="870.858808815471" y1="140.04466966305193" x2="824.0921000039214" y2="204.93501448349858"/><path class="line" d=" M 814.5156738315378,223.20212734711163 A 218.81401504502094,218.81401504502094 0 0 0 814.5024501150557,223.19232778698338"/><line x1="874.2878079192576" y1="142.5507915740389" x2="814.5156738315378" y2="223.20212734711163"/><line x1="995.1787552600961" y1="399" x2="1011.6787552600961" y2="399" class="tick" transform="rotate(307.89821089341916,684.228755260096,399)"/><text x="1014.4287552600961" y="399" text-anchor="start" style="font-color:black;font-weight:normal" transform="rotate(307.89821089341916,684.228755260096,399)">5 more</text><path class="line" d=" M 806.8515888975893,248.18860457715175 A 194.37190208122948,194.37190208122948 0 0 0 800.3421398575613,243.12146319651256"/><line x1="885.601526108068" y1="151.33561588106747" x2="806.8515888975893" y2="248.18860457715175"/><path class="line" d=" M 842.8696595552708,355.26792744922705 A 164.558289627648,164.558289627648 0 0 0 788.8261889131322,271.96139343343066"/><line x1="991.9505769051839" y1="314.1712284455989" x2="842.8696595552708" y2="355.26792744922705"/><text x="684.228755260096" y="213.572181654845" text-anchor="middle" style="font-color:black;font-weight:normal" transform="rotate(417.0273044316539,684.228755260096,399)">Bacillales</text><path class="line" d=" M 871.5166128359269,347.0029354354465 A 194.37190208122948,194.37190208122948 0 0 0 807.7764791575617,248.94535582518395"/><line x1="991.7952476290484" y1="313.6097618468061" x2="871.5166128359269" y2="347.0029354354465"/><text x="684.228755260096" y="192.4070414368748" text-anchor="middle" style="font-color:black;font-weight:normal" transform="rotate(416.97502055629593,684.228755260096,399)">Staphylococcaceae</text><path class="line" d=" M 895.0115032511395,340.2615430108443 A 218.81401504502094,218.81401504502094 0 0 0 823.3125077274688,230.07610299393033"/><line x1="991.7129588879936" y1="313.31391875387493" x2="895.0115032511395" y2="340.2615430108443"/><text x="684.228755260096" y="169.9863728796909" text-anchor="middle" style="font-color:black;font-weight:normal" transform="rotate(416.9474609430378,684.228755260096,399)">Staphylococcus</text><path class="line" d=" M 888.8163955169819,275.0368148982565 A 239.21323919559725,239.21323919559725 0 0 0 836.2787733558448,214.3279506705671"/><line x1="957.2252457118664" y1="233.5867109298155" x2="888.8163955169819" y2="275.0368148982565"/><text x="963.4353748578947" y="399" text-anchor="start" style="font-color:black;font-weight:normal" transform="rotate(319.1269953783776,684.228755260096,399)">5%&#160;&#160;&#160;Staphylococcus epidermidis</text><path class="line" d=" M 853.9027655933717,206.6461433652392 A 256.49420255600836,256.49420255600836 0 0 0 847.2629931277029,200.98708822965295"/><line x1="895.383407328909" y1="159.62090126809625" x2="853.9027655933717" y2="206.6461433652392"/><path class="line" d=" M 863.3089248012639,215.37111114547025 A 256.49420255600836,256.49420255600836 0 0 0 853.9027655933717,206.6461433652392"/><line x1="907.0891144725375" y1="170.4788843636074" x2="863.3089248012639" y2="215.37111114547025"/><text x="972.0758565381002" y="399" text-anchor="start" style="font-color:black;font-weight:normal" transform="rotate(312.8483937735689,684.228755260096,399)">0.8%&#160;&#160;&#160;Staphylococcus epidermidis RP62A</text><path class="line" d=" M 912.492935109517,327.4567403306141 A 239.21323919559725,239.21323919559725 0 0 0 888.8163955169819,275.0368148982565"/><line x1="988.818611795412" y1="303.53451254094176" x2="912.492935109517" y2="327.4567403306141"/><text x="963.4353748578947" y="399" text-anchor="start" style="font-color:black;font-weight:normal" transform="rotate(335.6927046414699,684.228755260096,399)">4%&#160;&#160;&#160;Staphylococcus aureus</text><path class="line" d=" M 909.2427589098156,275.8822754175232 A 256.49420255600836,256.49420255600836 0 0 0 903.5959768108974,266.08161130255803"/><line x1="964.2525111549562" y1="245.78336860988043" x2="909.2427589098156" y2="275.8822754175232"/><text x="972.0758565381002" y="399" text-anchor="start" style="font-color:black;font-weight:normal" transform="rotate(330.05103632084837,684.228755260096,399)">0.7%&#160;&#160;&#160;Staphylococcus aureus subsp. aureus</text><path class="line" d=" M 909.2729715759743,275.93750917678125 A 256.49420255600836,256.49420255600836 0 0 0 909.2427589098156,275.8822754175232"/><line x1="964.2901099893227" y1="245.8521055083346" x2="909.2729715759743" y2="275.93750917678125"/><path class="line" d=" M 913.1420466526663,329.56169047082005 A 239.21323919559725,239.21323919559725 0 0 0 912.492935109517,327.4567403306141"/><line x1="989.6847695602163" y1="306.3433039231125" x2="913.1420466526663" y2="329.56169047082005"/><path class="line" d=" M 895.0149909720499,340.2740601224018 A 218.81401504502094,218.81401504502094 0 0 0 895.0115032511395,340.2615430108443"/><line x1="991.7180466814532" y1="313.332178379559" x2="895.0149909720499" y2="340.2740601224018"/><path class="line" d=" M 871.595238457729,347.2869717302674 A 194.37190208122948,194.37190208122948 0 0 0 871.5166128359269,347.0029354354465"/><line x1="991.9243676212412" y1="314.07620984847733" x2="871.595238457729" y2="347.2869717302674"/><line x1="995.1787552600961" y1="399" x2="1011.6787552600961" y2="399" class="tick" transform="rotate(347.3080041963197,684.228755260096,399)"/><text x="1014.4287552600961" y="399" text-anchor="start" style="font-color:black;font-weight:normal" transform="rotate(347.3080041963197,684.228755260096,399)">4 more</text><path class="line" d=" M 809.0498176634741,373.52480406347115 A 127.39420405776919,127.39420405776919 0 0 0 807.9197573181642,368.5070624999246"/><line x1="996.9814696700139" y1="335.16913262982865" x2="809.0498176634741" y2="373.52480406347115"/><path class="line" d=" M 684.4063021450851,478.79980248787354 A 79.8,79.8 0 0 0 762.7690874118219,384.8771027938112"/><line x1="684.9389428000524" y1="718.1992099514941" x2="684.4063021450851" y2="478.79980248787354"/><text x="684.228755260096" y="512.1159428404384" text-anchor="middle" style="font-color:black;font-weight:normal" transform="rotate(309.839349003374,684.228755260096,399)">Actinobacteria</text><path class="line" d=" M 684.5167334626057,526.3938785659162 A 127.39420405776919,127.39420405776919 0 0 0 809.6120021385664,376.45394425348235"/><line x1="684.9503158909031" y1="718.199184444848" x2="684.5167334626057" y2="526.3938785659162"/><text x="684.228755260096" y="552.4090639566843" text-anchor="middle" style="font-color:black;font-weight:normal" transform="rotate(309.83832827695716,684.228755260096,399)">Actinobacteria</text><path class="line" d=" M 684.8411350148361,563.5571501825821 A 164.558289627648,164.558289627648 0 0 0 846.1894410455018,369.8766941248432"/><line x1="685.4166116613467" y1="718.1977897748824" x2="684.8411350148361" y2="563.5571501825821"/><text x="684.228755260096" y="572.5023733637224" text-anchor="middle" style="font-color:black;font-weight:normal" transform="rotate(309.7964784938615,684.228755260096,399)">Propionibacteriales</text><path class="line" d=" M 684.9605464624453,593.370524515193 A 194.37190208122948,194.37190208122948 0 0 0 875.5324363430848,364.6003208914212"/><line x1="685.4305120432977" y1="718.197737743603" x2="684.9605464624453" y2="593.370524515193"/><text x="684.228755260096" y="605.5929585631252" text-anchor="middle" style="font-color:black;font-weight:normal" transform="rotate(309.7952309393518,684.228755260096,399)">Propionibacteriaceae</text><path class="line" d=" M 686.0530822317131,617.8064098951932 A 218.81401504502094,218.81401504502094 0 0 0 899.5887229429117,360.2745884491946"/><line x1="686.8900343798105" y1="718.1889058119767" x2="686.0530822317131" y2="617.8064098951932"/><text x="684.228755260096" y="628.0136271203091" text-anchor="middle" style="font-color:black;font-weight:normal" transform="rotate(309.66423771584107,684.228755260096,399)">Cutibacterium</text><path class="line" d=" M 689.7493951117563,638.1495271625647 A 239.21323919559725,239.21323919559725 0 0 0 919.6659389883223,356.66436105866086"/><line x1="691.5953552299626" y1="718.1149843001483" x2="689.7493951117563" y2="638.1495271625647"/><text x="684.228755260096" y="646.8537208758028" text-anchor="middle" style="font-color:black;font-weight:normal" transform="rotate(309.24188380730953,684.228755260096,399)">Cutibacterium avidum</text><path class="line" d=" M 690.1482107263242,655.4258879127183 A 256.49420255600836,256.49420255600836 0 0 0 936.6741169611105,353.60599928970095"/><text x="972.0758565381002" y="399" text-anchor="start" style="font-color:black;font-weight:normal" transform="rotate(399.2418838073096,684.228755260096,399)">27%&#160;&#160;&#160;Cutibacterium avidum 44067</text><path class="line" d=" M 689.4350633387812,638.1565766660826 A 239.21323919559725,239.21323919559725 0 0 0 689.7493951117563,638.1495271625647"/><line x1="691.1759189885946" y1="718.1243909765117" x2="689.4350633387812" y2="638.1565766660826"/><path class="line" d=" M 686.0201653932445,617.8066818674821 A 218.81401504502094,218.81401504502094 0 0 0 686.0530822317131,617.8064098951932"/><line x1="686.8420161811724" y1="718.189302557837" x2="686.0201653932445" y2="617.8066818674821"/><path class="line" d=" M 684.956698997819,593.3705389625438 A 194.37190208122948,194.37190208122948 0 0 0 684.9605464624453,593.370524515193"/><line x1="685.4241936881465" y1="718.1977614692257" x2="684.956698997819" y2="593.3705389625438"/><path class="line" d=" M 684.7486269189451,563.5574684377322 A 164.558289627648,164.558289627648 0 0 0 684.8411350148361,563.5571501825821"/><line x1="685.2371701742284" y1="718.1984071065533" x2="684.7486269189451" y2="563.5574684377322"/><path class="line" d=" M 684.514716105568,526.3938831102474 A 127.39420405776919,127.39420405776919 0 0 0 684.5167334626057,526.3938785659162"/><line x1="684.9452611839705" y1="718.1991958311628" x2="684.514716105568" y2="526.3938831102474"/><line x1="684.6659883823618" y1="718.1997005437141" x2="684.3380635406625" y2="478.79992513592856"/><path class="line" d=" M 684.3380635406625,478.79992513592856 A 79.8,79.8 0 0 0 684.4063021450851,478.79980248787354"/><path class="line" d=" M 684.3371157815894,478.7999264285211 A 79.8,79.8 0 0 0 684.3380635406625,478.79992513592856"/><line x1="684.6621973460698" y1="718.1997057140844" x2="684.3371157815894" y2="478.7999264285211"/><line x1="684.6621973460698" y1="718.1997057140844" x2="684.3371157815894" y2="478.7999264285211"/><path class="line" d=" M 684.3371157815894,478.7999264285211 A 79.8,79.8 0 0 0 684.3371157815894,478.7999264285211"/><path class="line" d=" M 684.4017440118121,526.3940866068921 A 127.39420405776919,127.39420405776919 0 0 0 684.4017440118121,526.3940866068921"/><line x1="684.5560483070229" y1="718.1998322043128" x2="684.3105785218278" y2="478.7999580510782"/><path class="line" d=" M 684.3105785218278,478.7999580510782 A 79.8,79.8 0 0 0 684.3371157815894,478.7999264285211"/><line x1="684.5560483070229" y1="718.1998322043128" x2="684.3105785218278" y2="478.7999580510782"/><path class="line" d=" M 684.3105785218278,478.7999580510782 A 79.8,79.8 0 0 0 684.3105785218278,478.7999580510782"/><path class="line" d=" M 684.3593794368094,526.3941370897303 A 127.39420405776919,127.39420405776919 0 0 0 684.3593794368094,526.3941370897303"/></svg>